<svg width="402" height="361" viewBox="0 0 402 361" fill="none" xmlns="http://www.w3.org/2000/svg">
<path fill-rule="evenodd" clip-rule="evenodd" d="M202.633 0.618122C235.882 -0.113875 264.974 23.5518 289.675 45.8397C311.605 65.6278 317.485 96.4722 335.125 120.17C355.709 147.823 402.634 162.253 401.994 196.731C401.348 231.439 351.692 242.876 332.309 271.664C314.782 297.697 322.409 341.64 294.624 356.202C266.544 370.918 234.321 340.358 202.633 339.626C171.979 338.917 142.414 360.884 113.063 352.006C82.1553 342.658 59.308 316.66 40.3123 290.528C19.974 262.55 1.90107 231.289 0.189373 196.731C-1.55411 161.531 8.74962 124.926 30.7467 97.4061C51.7748 71.0987 88.438 66.1436 117.775 49.6243C146.73 33.3198 169.418 1.34938 202.633 0.618122Z" fill="#11A4AE" fill-opacity="0.2"/>
<path d="M215.828 73.4388C215.897 73.4561 215.946 73.4865 215.985 73.4756C217.15 73.1654 217.702 74.0218 217.832 74.8835C217.902 75.3504 217.904 75.8266 217.844 76.2929C217.71 77.319 216.88 78.095 215.82 78.1043C215.412 78.1075 215.361 78.2577 215.301 78.5739C214.822 81.1049 214.131 83.5686 212.914 85.8582C212.812 86.0502 212.773 86.2546 212.735 86.464C212.336 88.6473 212.109 90.8442 212.2 93.0682C212.225 93.6859 212.346 94.2813 212.527 94.8687C212.658 95.2944 212.911 95.616 213.311 95.8215C214.281 96.3188 215.285 96.7093 216.378 96.828C216.823 96.8763 217.27 96.9284 217.69 97.0932C218.308 97.3362 218.389 97.7792 217.9 98.212C217.777 98.321 217.641 98.4165 217.502 98.5049C214.323 100.524 210.904 101.913 207.157 102.428C206.006 102.587 204.846 102.52 203.709 102.309C201.837 101.962 199.954 101.64 198.135 101.054C196.558 100.546 195.058 99.8785 193.763 98.8145C193.191 98.3438 193.17 98.2548 193.594 97.6675C194.837 95.9441 195.457 93.982 195.785 91.9147C196.069 90.1251 196.313 88.329 196.59 86.5377C196.646 86.1733 196.608 85.8419 196.462 85.5079C195.607 83.5539 195.014 81.5279 194.818 79.3982C194.786 79.0522 194.645 78.9969 194.32 79.0056C193.102 79.0376 192.102 78.1341 191.999 76.9085C191.904 75.7984 192.281 74.8168 192.96 73.9588C193.306 73.5217 193.782 73.2685 194.362 73.237C194.867 73.2094 194.872 73.2002 194.945 72.6817C195.11 71.5125 195.414 70.3785 195.781 69.2576C196.309 67.6496 197.146 66.2233 198.177 64.8844C199.588 63.0514 201.52 62.1642 203.709 61.7845C206.205 61.3523 208.584 61.8838 210.848 62.9413C213.645 64.2472 215.103 66.5417 215.603 69.5206C215.767 70.4995 215.824 71.4837 215.799 72.4762C215.789 72.7978 215.728 73.1275 215.828 73.4388Z" fill="#FFCBB6"/>
<path d="M197.734 60.6024C198.06 60.5926 198.623 60.6669 199.155 60.8676C201.329 61.6865 203.529 61.6344 205.758 61.1339C207.256 60.7976 208.773 60.5992 210.313 60.6637C212.67 60.7624 214.652 61.6312 216.141 63.5146C217.237 64.8997 217.482 66.4333 216.987 68.1058C216.94 68.2631 216.905 68.4485 216.8 68.5592C216.359 69.0245 216.414 69.5776 216.45 70.1438C216.509 71.0603 216.546 71.9779 216.592 72.8949C216.608 73.2192 216.534 73.5034 216.235 73.6867C215.772 73.9709 215.279 73.7512 215.188 73.1905C215.075 72.4936 214.999 71.7908 214.906 71.0901C214.885 70.9269 214.845 70.7637 214.842 70.6004C214.832 69.9751 214.566 69.6796 213.904 69.563C212.494 69.3157 211.228 68.6665 210.071 67.839C209.647 67.5364 209.358 67.5087 208.893 67.7826C207.047 68.8726 205.151 69.871 203.067 70.4453C202.249 70.6709 201.426 70.8727 200.579 70.9486C199.392 71.0549 198.23 70.9312 197.099 70.5364C196.532 70.3385 196.526 70.351 196.374 70.9562C196.196 71.6633 196.032 72.3749 195.839 73.0782C195.656 73.748 195.038 74.0284 194.416 73.7464C194.068 73.5885 194.07 73.2751 194.077 72.9638C194.1 71.9242 194.241 70.8965 194.458 69.8835C194.556 69.4269 194.497 69.1156 194.162 68.7544C193.012 67.5109 192.557 66.0022 192.719 64.3259C192.834 63.1388 193.571 62.302 194.461 61.6068C195.342 60.9197 196.367 60.5986 197.734 60.6024Z" fill="black"/>
<path d="M201.912 74.9604C201.877 75.3633 201.395 75.6497 200.838 75.5998C200.279 75.5499 199.856 75.1827 199.893 74.7798C199.929 74.3769 200.41 74.0905 200.968 74.1404C201.525 74.1908 201.948 74.5574 201.912 74.9604Z" fill="#7B481A"/>
<path d="M211.217 75.7909C211.181 76.1938 210.7 76.4802 210.142 76.4303C209.584 76.3804 209.161 76.0132 209.197 75.6108C209.233 75.2079 209.715 74.9216 210.273 74.9715C210.83 75.0208 211.253 75.388 211.217 75.7909Z" fill="#7B481A"/>
<path d="M203.793 80.4871L205.691 74.4316L206.662 80.6579L203.793 80.4871Z" fill="#F69A90"/>
<path d="M202.693 73.3359C202.615 73.273 201.455 72.3625 199.843 72.4514C199.038 72.4959 198.504 72.7687 198.277 72.9026L202.693 73.3359Z" fill="black"/>
<path d="M202.059 82.9199C202.153 82.9964 203.568 84.1065 205.532 83.998C206.513 83.9438 207.164 83.6114 207.439 83.4481L202.059 82.9199Z" fill="#9C553C"/>
<path d="M213.001 74.2096C212.916 74.1413 211.646 73.1439 209.882 73.241C209 73.2898 208.416 73.5881 208.168 73.7351L213.001 74.2096Z" fill="black"/>
<path d="M201.891 79.1106C201.789 80.2554 200.783 81.1009 199.643 80.9989C198.504 80.8975 197.664 79.8872 197.766 78.7424C197.868 77.5975 198.875 76.7521 200.013 76.854C201.152 76.9554 201.992 77.9658 201.891 79.1106Z" fill="#FC847C"/>
<path d="M213.023 80.6457C212.921 81.7906 211.914 82.636 210.776 82.5341C209.637 82.4321 208.797 81.4223 208.899 80.2775C209.001 79.1327 210.007 78.2872 211.146 78.3892C212.286 78.4911 213.125 79.5009 213.023 80.6457Z" fill="#FC847C"/>
<path d="M193.93 279.872C196.189 279.772 198.448 279.683 200.709 279.728C202.054 279.754 202.108 279.811 202.024 281.148C201.917 282.866 201.956 284.584 201.986 286.302C202.002 287.15 201.988 287.995 201.842 288.836C201.624 290.099 201.286 290.428 200.016 290.572C198.401 290.755 196.78 290.838 195.156 290.89C192.026 290.993 188.914 291.288 185.801 291.643C181.899 292.088 178.001 292.617 174.066 292.736C172.938 292.77 171.811 292.87 170.683 292.935C169.553 293.001 168.426 292.992 167.3 292.84C166.017 292.667 165.571 291.873 166.113 290.687C166.373 290.117 166.8 289.678 167.29 289.301C167.759 288.939 168.279 288.67 168.824 288.439C170.775 287.611 172.813 287.028 174.818 286.354C177.483 285.459 180.054 284.372 182.377 282.764C183.19 282.201 183.994 281.62 184.698 280.922C185.48 280.144 186.399 279.836 187.503 279.859C189.645 279.903 191.788 279.872 193.93 279.872Z" fill="#424242"/>
<path d="M225.455 278.437C223.196 278.338 220.938 278.248 218.677 278.293C217.331 278.32 217.277 278.376 217.361 279.714C217.469 281.431 217.429 283.149 217.399 284.868C217.384 285.715 217.398 286.56 217.543 287.401C217.761 288.664 218.099 288.993 219.37 289.137C220.985 289.321 222.606 289.403 224.229 289.456C227.36 289.558 230.472 289.853 233.584 290.208C237.487 290.654 241.384 291.183 245.319 291.302C246.448 291.336 247.574 291.435 248.702 291.501C249.832 291.566 250.96 291.558 252.085 291.406C253.368 291.232 253.815 290.438 253.273 289.252C253.012 288.682 252.585 288.244 252.095 287.866C251.627 287.505 251.106 287.236 250.562 287.005C248.61 286.176 246.572 285.594 244.567 284.92C241.903 284.024 239.332 282.938 237.008 281.329C236.195 280.766 235.391 280.186 234.688 279.487C233.905 278.71 232.986 278.402 231.882 278.424C229.741 278.469 227.598 278.437 225.455 278.437Z" fill="#424242"/>
<path d="M208.542 219.803C208.313 220.591 208.302 221.348 208.231 222.091C207.969 224.81 207.764 227.536 207.491 230.254C207.215 233.019 206.91 235.781 206.572 238.54C205.82 244.668 205.204 250.805 205.226 256.99C205.239 260.714 205.029 264.431 204.898 268.15C204.854 269.421 204.813 270.694 204.812 271.965C204.81 274.699 204.702 277.43 204.646 280.162C204.644 280.279 204.63 280.398 204.636 280.515C204.652 280.863 204.515 281.018 204.143 281.032C203.343 281.063 202.546 281.147 201.746 281.194C199.631 281.32 197.514 281.437 195.398 281.559C194.857 281.591 194.317 281.631 193.776 281.66C192.295 281.741 190.817 281.77 189.331 281.713C186.482 281.603 183.633 281.843 180.783 281.8C179.47 281.78 179.708 281.797 179.714 280.742C179.76 272.306 179.513 263.876 179.365 255.443C179.263 249.601 179.064 243.764 178.669 237.933C177.79 224.949 177.676 211.949 177.85 198.942C177.911 194.442 178.079 189.947 178.288 185.452C178.475 181.405 178.611 177.356 178.801 173.308C178.922 170.72 179.062 168.133 179.103 165.541C179.124 164.191 179.298 164.039 180.682 163.956C184.798 163.711 188.921 163.686 193.042 163.582C198.577 163.442 204.114 163.509 209.649 163.419C213.842 163.352 218.033 163.193 222.227 163.187C223.923 163.185 225.619 163.201 227.315 163.209C227.433 163.209 227.551 163.21 227.668 163.222C228.297 163.284 228.434 163.399 228.493 164.051C228.847 167.921 229.438 171.762 229.843 175.627C230.232 179.326 230.737 183.014 231.156 186.711C231.54 190.104 231.877 193.502 232.236 196.898C232.764 201.888 233.058 206.897 233.451 211.898C233.878 217.322 234.25 222.75 234.51 228.186C234.643 230.961 234.894 233.731 235.126 236.501C235.515 241.124 235.913 245.747 236.343 250.366C236.612 253.252 236.824 256.141 236.975 259.033C237.1 261.433 237.153 263.836 237.241 266.237C237.395 270.404 237.634 274.566 237.982 278.721C237.99 278.815 237.991 278.91 238.004 279.003C238.048 279.305 237.917 279.43 237.616 279.44C236.721 279.47 235.828 279.527 234.933 279.553C230.977 279.667 227.025 279.853 223.075 280.083C220.888 280.21 218.699 280.299 216.512 280.409C215.759 280.446 215.007 280.5 214.254 280.535C213.719 280.56 213.71 280.552 213.676 280.017C213.534 277.76 213.419 275.501 213.387 273.24C213.35 270.668 213.044 268.118 212.796 265.563C212.591 263.454 212.374 261.345 212.169 259.236C211.946 256.938 211.726 254.641 211.514 252.343C211.341 250.467 211.258 248.584 211.045 246.71C210.771 244.3 210.491 241.89 210.259 239.476C209.972 236.499 209.725 233.518 209.474 230.538C209.178 227.041 208.897 223.543 208.607 220.046C208.603 219.983 208.576 219.924 208.542 219.803Z" fill="#FF9406"/>
<path d="M128.519 126.627C128.585 127.429 128.863 128.073 129.143 128.712C129.428 129.358 129.737 129.993 130.03 130.636C130.157 130.915 130.26 131.205 130.293 131.512C130.316 131.728 130.279 131.953 130.081 132.077C129.883 132.202 129.673 132.14 129.482 132.021C129.033 131.741 128.685 131.362 128.406 130.919C128.08 130.4 127.8 129.857 127.55 129.297C127.484 129.151 127.444 128.987 127.288 128.875C127.174 129.058 127.266 129.227 127.307 129.394C127.552 130.401 127.921 131.371 128.228 132.359C128.304 132.606 128.384 132.853 128.438 133.106C128.502 133.4 128.627 133.761 128.277 133.927C127.943 134.085 127.704 133.795 127.509 133.564C127.297 133.313 127.107 133.042 126.936 132.762C126.468 131.997 126.119 131.173 125.766 130.351C125.678 130.145 125.652 129.901 125.408 129.715C125.466 130.419 125.679 131.041 125.885 131.659C126.108 132.329 126.372 132.984 126.613 133.648C126.7 133.89 126.813 134.13 126.792 134.397C126.765 134.75 126.518 134.885 126.2 134.718C125.967 134.596 125.791 134.402 125.621 134.206C125.095 133.594 124.663 132.918 124.36 132.174C122.436 127.452 122.367 122.744 124.512 118.065C124.894 117.229 125.352 116.431 125.978 115.746C126.371 115.316 126.674 115.327 127.006 115.788C127.184 116.034 127.337 116.304 127.467 116.579C128.468 118.711 129.583 120.783 130.743 122.831C131.025 123.331 131.081 123.799 130.976 124.375C130.721 125.775 131.024 127.135 131.481 128.462C131.581 128.751 131.683 129.04 131.757 129.336C131.808 129.541 131.83 129.773 131.637 129.925C131.429 130.088 131.183 130.043 130.966 129.945C130.661 129.807 130.428 129.569 130.211 129.317C129.7 128.723 129.325 128.044 128.968 127.353C128.852 127.126 128.767 126.88 128.519 126.627Z" fill="#FFCBB6"/>
<path d="M250.436 145.623C250.132 153.264 248.587 160.536 245.479 167.337C243.305 164.267 240.517 161.832 237.242 159.885C236.672 159.549 236.092 159.235 235.506 158.936C235.805 156.669 236.065 154.397 236.244 152.12C236.51 148.584 236.472 145.059 235.962 141.544C235.658 139.473 235.322 137.401 234.769 135.378C233.939 132.341 232.491 129.608 230.582 127.114C230.512 127.027 230.463 126.908 230.24 126.891C230.148 129.397 230.045 131.864 229.958 134.337C229.796 139.164 229.996 143.99 229.958 148.822C229.937 151.442 229.888 154.056 229.834 156.669C229.78 159.094 229.72 161.518 229.655 163.942C229.628 165.124 229.601 165.151 228.424 165.271C227.491 165.363 226.547 165.428 225.609 165.455C222.849 165.542 220.11 165.856 217.366 166.079C215.04 166.268 212.713 166.415 210.381 166.426C204.318 166.447 198.255 166.615 192.192 166.697C190.88 166.718 189.573 166.735 188.26 166.74C185.316 166.756 182.376 166.594 179.442 166.355C178.553 166.285 177.653 166.263 176.763 166.209C176.042 166.171 175.858 165.981 175.825 165.26C175.673 161.545 175.5 157.825 175.375 154.104C175.261 150.905 175.38 147.7 175.592 144.5C175.814 141.187 176.015 137.873 176.243 134.56C176.46 131.382 176.959 128.242 177.653 125.14C178.602 120.904 179.741 116.734 181.319 112.688C181.552 112.092 181.812 111.517 182.062 110.931C182.284 110.41 182.284 110.405 181.736 110.318C179.03 109.868 176.308 109.7 173.569 109.771C169.393 109.874 165.272 110.492 161.188 111.338C155.635 112.488 150.293 114.293 145.103 116.566C142.614 117.656 140.326 119.109 137.977 120.459C136.123 121.528 134.295 122.645 132.527 123.86C131.844 124.321 131.616 124.315 131.101 123.675C130.146 122.504 129.279 121.273 128.465 119.999C127.755 118.892 127.082 117.759 126.41 116.625C125.96 115.872 125.998 115.714 126.643 115.107C128.942 112.954 131.567 111.246 134.23 109.592C140.233 105.866 146.714 103.219 153.395 101.029C156.524 99.9982 159.648 98.9407 162.88 98.2682C166.27 97.5632 169.686 97.0426 173.141 96.7389C176.427 96.4515 179.708 96.1694 183.005 96.0718C185.527 95.9959 188.049 96.0284 190.554 96.3321C191.281 96.4189 192.002 96.5491 192.707 96.7443C193.233 96.8907 193.667 97.1781 194.123 97.4818C196.926 99.3853 199.822 101.045 203.331 101.316C205.864 101.511 208.309 101.186 210.734 100.535C211.78 100.253 212.8 99.8897 213.814 99.5101C215.235 98.9678 216.553 98.2519 217.784 97.3734C218.38 96.945 218.982 96.8311 219.703 97.0371C224.535 98.4363 229.107 100.356 233.088 103.518C237.41 106.951 240.837 111.132 243.538 115.926C246.461 121.121 248.375 126.685 249.471 132.542C250.279 136.864 250.61 141.23 250.436 145.623Z" fill="#4737B7"/>
<path d="M245.481 167.335C244.462 169.591 243.263 171.798 241.886 173.946C241.604 174.38 241.268 174.786 241.029 175.242C240.677 175.898 240.134 176.023 239.478 175.887C238.122 175.605 236.777 175.253 235.46 174.819C234.695 174.564 233.952 174.277 233.22 173.957C232.558 173.664 232.461 173.506 232.634 172.812C233.046 171.196 233.491 169.586 233.909 167.964C234.652 165.09 235.075 162.15 235.47 159.211C235.481 159.119 235.498 159.027 235.508 158.935C236.094 159.233 236.674 159.547 237.244 159.884C240.519 161.831 243.307 164.265 245.481 167.335Z" fill="#4737B7"/>
<path d="M151.726 124.632C151.161 124.767 150.713 124.966 150.266 125.161C143.958 127.906 138.973 132.148 135.56 138.168C133.797 141.277 133.094 144.654 132.99 148.19C132.909 150.974 133.382 153.676 134.165 156.335C134.198 156.447 134.243 156.558 134.263 156.673C134.362 157.206 134.244 157.407 133.713 157.545C132.277 157.918 130.82 158.192 129.359 158.45C128.266 158.643 127.166 158.741 126.055 158.715C125.307 158.697 125.16 158.622 124.913 157.914C124.313 156.198 123.922 154.427 123.655 152.633C122.583 145.429 124.046 138.688 127.4 132.292C129.674 127.954 132.824 124.32 136.433 121.065C142.71 115.405 149.95 111.465 158.045 109.066C160.779 108.256 163.532 107.541 166.362 107.153C166.548 107.127 166.736 107.113 166.922 107.082C167.658 106.958 168.213 107.209 168.75 107.742C170.463 109.439 172.368 110.904 174.451 112.118C176.943 113.571 179.657 114.407 182.497 114.838C184.854 115.195 187.223 115.389 189.608 115.146C190.404 115.065 191.198 114.964 191.974 114.759C192.179 114.705 192.385 114.653 192.594 114.618C192.793 114.584 192.967 114.648 193.091 114.814C193.227 114.996 193.175 115.168 193.056 115.333C193.028 115.371 192.994 115.405 192.968 115.444C189.536 120.616 186.614 126.069 184.013 131.699C183.381 133.067 182.741 134.43 182.143 135.814C180.952 138.567 180.332 141.456 180.064 144.427C179.686 148.608 179.592 152.796 179.822 156.991C179.881 158.072 179.866 159.158 179.867 160.241C179.867 160.906 179.688 161.08 179.023 161.07C173.182 160.983 167.34 160.937 161.5 160.742C159.264 160.667 157.024 160.716 154.788 160.635C151.917 160.529 149.04 160.611 146.172 160.386C144.763 160.275 143.354 160.17 141.946 160.061C141.829 160.052 141.712 160.032 141.596 160.011C140.717 159.853 140.502 159.586 140.646 158.708C140.953 156.849 141.423 155.023 141.821 153.183C143.105 147.249 145.214 141.579 147.303 135.9C148.661 132.21 150.009 128.518 151.637 124.936C151.667 124.872 151.677 124.801 151.726 124.632Z" fill="#FF5572"/>
<path d="M132.968 164.682C132.981 165.058 133.126 165.248 133.227 165.449C133.543 166.081 133.874 166.705 134.193 167.335C134.31 167.565 134.423 167.801 134.447 168.064C134.5 168.626 134.101 168.921 133.599 168.665C133.374 168.55 133.177 168.365 132.992 168.186C132.415 167.626 131.948 166.974 131.501 166.308C131.305 166.017 131.107 165.728 130.897 165.418C130.724 165.621 130.87 165.754 130.926 165.881C131.307 166.742 131.702 167.597 132.084 168.458C132.198 168.716 132.302 168.98 132.384 169.25C132.456 169.487 132.438 169.73 132.204 169.88C131.951 170.041 131.703 169.982 131.495 169.786C131.325 169.625 131.156 169.456 131.017 169.268C130.669 168.793 130.317 168.32 130.005 167.821C128.269 165.035 126.805 162.114 125.698 159.02C125.271 157.826 125.431 157.531 126.673 157.393C128.568 157.182 130.457 156.906 132.364 156.817C132.692 156.802 133.019 156.748 133.344 156.698C133.718 156.64 133.99 156.76 134.151 157.11C134.17 157.153 134.197 157.192 134.215 157.236C135.077 159.333 136.239 161.276 137.331 163.254C137.581 163.706 137.827 164.165 137.924 164.683C137.969 164.925 137.968 165.161 137.764 165.334C137.538 165.525 137.282 165.489 137.032 165.38C136.7 165.237 136.451 164.985 136.199 164.737C135.61 164.159 135.161 163.464 134.588 162.744C134.573 163.097 134.723 163.29 134.822 163.489C135.166 164.186 135.528 164.873 135.878 165.567C136.047 165.904 136.202 166.251 136.263 166.626C136.312 166.935 136.322 167.263 135.989 167.433C135.695 167.582 135.446 167.428 135.222 167.232C134.76 166.828 134.331 166.392 133.95 165.91C133.65 165.531 133.346 165.155 132.968 164.682Z" fill="#FFCBB6"/>
<path d="M151.03 286.266C151.017 286.215 151.005 286.163 150.992 286.112C150.558 284.345 149.848 282.666 149.372 280.924C149.004 281.018 148.636 281.116 148.265 281.194C145.984 281.671 143.715 282.189 141.459 282.779C140.242 283.097 139.557 283.672 139.272 285.038C138.614 288.197 137.495 291.195 135.594 293.818C134.329 295.565 132.933 297.195 131.343 298.636C130.733 299.187 130.469 299.825 130.561 300.638C130.645 301.381 131.054 301.722 131.758 301.562C132.384 301.419 133.01 301.244 133.606 301.004C136.853 299.697 140.146 298.504 143.291 296.944C144.395 296.396 145.301 295.627 145.838 294.462C146.323 293.411 146.805 292.359 147.289 291.307C147.343 291.307 147.397 291.308 147.452 291.309C147.476 291.961 147.472 292.615 147.529 293.264C147.631 294.44 148.202 294.806 149.272 294.427C149.764 294.253 150.258 294.087 150.757 293.937C151.515 293.708 152.005 293.387 152.253 292.861C152.371 292.61 152.08 291.766 152.036 291.479C151.77 289.73 151.446 287.988 151.03 286.266Z" fill="black"/>
<path d="M153.895 201.165C153.656 201.376 153.501 201.766 153.381 202.029C149.971 209.566 147.451 216.959 145.928 225.028C145.335 228.168 144.932 231.164 144.681 234.296C144.519 236.323 144.48 238.28 144.481 240.307C144.483 244.476 144.741 248.556 145.122 252.733C145.439 256.209 145.859 259.67 146.418 263.173C146.976 266.675 147.671 270.291 148.374 273.8C148.734 275.599 149.083 277.414 149.448 279.215C149.561 279.769 149.772 280.298 149.874 280.863C149.976 281.428 149.828 281.694 149.201 281.842C146.471 282.486 143.63 283.051 140.86 283.579C140.204 283.704 139.482 283.793 138.858 283.816C138.234 283.84 138.135 283.792 137.872 283.229C136.737 280.797 135.928 278.216 135.12 275.631C133.982 271.993 132.792 268.335 131.815 264.639C130.624 260.136 129.765 255.512 129.17 250.917C128.616 246.641 128.334 242.46 128.058 238.179C127.754 233.463 127.572 228.995 127.434 224.192C127.344 221.039 127.284 217.779 127.496 214.461C127.96 207.217 129.347 199.946 131.53 192.958C133.52 186.583 135.923 180.412 138.546 174.3C139.031 173.17 139.376 172.075 139.732 170.944C140.522 168.431 141.349 165.967 142.011 163.436C142.291 162.366 142.54 161.263 142.669 160.2C142.737 159.647 142.831 159.545 143.381 159.59C144.892 159.713 146.473 159.792 147.99 159.843C154.269 160.056 160.446 160.407 166.711 159.964C170.112 159.724 173.419 159.128 176.779 158.589C177.631 158.452 178.545 158.305 179.412 158.389C180.078 158.455 180.175 158.449 180.268 159.251C180.787 163.742 181.257 168.068 181.26 172.745C181.264 178.675 180.968 184.384 180.354 190.533C179.791 196.177 178.98 202.444 178.352 208.303C177.776 213.673 177.214 220.25 176.823 225.416C176.479 229.963 176.436 234.622 176.395 238.486C176.363 241.544 176.5 243.489 176.534 245.863C176.581 249.218 176.572 251.875 176.638 254.912C176.68 256.794 176.673 258.165 176.727 259.904C176.791 261.971 176.978 263.41 176.926 265.583C176.839 269.254 176.511 273.316 176.054 277.096C175.982 277.698 175.826 278.43 175.693 279.068C175.642 279.313 175.546 279.526 175.389 279.802C175.232 280.078 174.935 280.352 174.546 280.403C173.884 280.491 173.197 280.513 172.522 280.529C171.049 280.563 169.586 280.603 168.114 280.71C167.218 280.775 166.329 280.722 165.472 280.482C164.945 280.334 164.662 279.947 164.623 279.46C164.437 277.114 164.139 274.228 163.78 272.096C162.893 266.815 161.828 263.181 160.205 257.95C159.167 254.607 158.16 252.2 157.012 247.898C155.199 241.099 154.479 233.031 154.19 225.046C154.059 221.435 153.904 215.284 153.962 211.163C154.002 208.268 153.883 205.15 153.957 202.246C153.967 201.898 154 201.505 153.895 201.165Z" fill="#56ADF4"/>
<path d="M176.994 283.344C176.982 283.293 176.969 283.241 176.956 283.19C176.522 281.423 175.812 279.744 175.337 278.002C174.968 278.096 174.6 278.194 174.229 278.272C171.948 278.749 169.679 279.267 167.423 279.857C166.206 280.176 165.521 280.75 165.237 282.116C164.578 285.275 163.46 288.273 161.559 290.897C160.294 292.643 158.898 294.274 157.308 295.714C156.698 296.266 156.434 296.904 156.526 297.717C156.61 298.459 157.019 298.801 157.723 298.641C158.349 298.498 158.975 298.323 159.571 298.083C162.818 296.777 166.11 295.583 169.256 294.023C170.36 293.475 171.266 292.707 171.803 291.541C172.287 290.49 172.77 289.438 173.254 288.386C173.308 288.387 173.362 288.387 173.416 288.388C173.44 289.04 173.437 289.694 173.493 290.343C173.595 291.52 174.166 291.885 175.237 291.506C175.728 291.332 176.223 291.167 176.722 291.016C177.479 290.787 177.97 290.466 178.218 289.94C178.336 289.689 178.045 288.845 178.001 288.559C177.734 286.808 177.411 285.066 176.994 283.344Z" fill="black"/>
<path d="M126.315 199.424C126.071 199.421 125.798 199.295 125.536 199.125C125.018 198.787 124.571 198.369 124.181 197.894C123.091 196.564 122.008 195.229 121.046 193.802C120.583 193.114 119.995 192.533 119.411 191.951C118.911 191.453 118.398 190.967 117.89 190.475C117.67 190.262 117.454 190.045 117.292 189.781C116.881 189.11 116.898 188.575 117.378 187.955C117.74 187.488 118.148 187.066 118.621 186.706C119.673 185.907 120.826 185.262 121.923 184.532C122.247 184.315 122.545 184.357 122.823 184.606C122.98 184.748 123.128 184.901 123.27 185.058C124.524 186.437 125.654 187.914 126.767 189.406C127.023 189.75 127.106 190.064 126.915 190.506C126.39 191.716 126.367 192.977 126.732 194.239C127 195.166 127.297 196.084 127.57 197.01C127.67 197.347 127.776 197.685 127.787 198.043C127.815 198.916 127.258 199.47 126.315 199.424Z" fill="black"/>
<path d="M154.174 152.286C154.031 156.124 153.9 159.968 152.916 163.707C152.122 166.72 151.002 169.623 149.592 172.4C148.445 174.657 146.72 176.469 144.83 178.125C142.009 180.598 139.013 182.829 135.865 184.876C133.203 186.608 130.592 188.431 128.201 190.54C128.06 190.664 127.909 190.779 127.753 190.885C127.165 191.287 126.928 191.25 126.406 190.737C125.108 189.462 123.95 188.07 122.861 186.616C122.508 186.145 122.17 185.661 121.799 185.205C121.34 184.638 121.321 184.099 121.7 183.462C122.531 182.061 123.463 180.733 124.435 179.43C125.974 177.364 127.726 175.489 129.535 173.666C131.381 171.805 133.075 169.819 134.614 167.699C134.891 167.318 135.137 166.915 135.406 166.529C136.462 165.012 136.548 163.387 135.973 161.678C135.634 160.67 135.189 159.709 134.749 158.746C132.833 154.559 132.338 150.168 132.838 145.632C132.913 144.949 133.167 144.68 133.866 144.598C136.112 144.333 138.356 144.056 140.606 143.845C143.279 143.595 145.957 143.404 148.634 143.197C149.809 143.106 150.988 143.091 152.166 143.109C152.938 143.121 153.047 143.21 153.243 143.956C153.839 146.222 154.102 148.535 154.172 150.873C154.186 151.343 154.174 151.815 154.174 152.286Z" fill="#029660"/>
<path d="M141.824 108.609C140.341 108.502 138.856 108.595 137.374 108.472C137.093 108.449 136.81 108.432 136.531 108.392C135.921 108.304 135.797 108.181 135.819 107.572C135.851 106.631 135.922 105.691 135.968 104.751C136.138 101.242 136.465 97.7537 137.226 94.316C137.631 92.4895 138.193 90.7265 139.183 89.1218C139.924 87.92 140.794 86.8365 142.143 86.2882C144.768 85.2204 147.232 85.536 149.419 87.3544C150.581 88.3197 151.034 89.6896 151.223 91.1576C151.373 92.3274 151.447 93.502 151.484 94.6788C151.505 95.3643 151.649 95.9402 152.367 96.2065C152.431 96.2304 152.489 96.2792 152.543 96.3236C153.08 96.7645 153.126 97.4012 152.529 97.7233C151.771 98.1333 151.591 98.7884 151.487 99.5195C151.35 100.476 151.163 101.419 150.95 102.361C150.646 103.703 150.01 104.765 148.689 105.314C148.248 105.497 148.116 105.845 148.166 106.285C148.209 106.659 148.268 107.031 148.324 107.404C148.411 107.989 148.252 108.245 147.673 108.353C146.721 108.53 145.756 108.583 144.791 108.604C143.802 108.625 142.813 108.609 141.824 108.609Z" fill="#FFCBB6"/>
<path d="M150.471 85.9778C150.774 85.8151 151.081 85.6465 151.391 85.4838C151.761 85.2902 152.157 85.2462 152.56 85.3249C153.28 85.4659 153.612 86.0727 153.347 86.7571C153.093 87.4117 152.652 87.9301 152.109 88.3602C150.537 89.6059 148.787 90.5077 146.824 90.934C146.326 91.0419 146.1 91.254 145.986 91.7138C145.891 92.1005 145.735 92.4725 145.602 92.85C145.532 93.0517 145.437 93.2393 145.269 93.3825C144.882 93.7128 144.467 93.6645 144.19 93.2388C144.036 93.0034 143.935 92.7301 143.763 92.511C143.533 92.2198 143.294 92.1997 143.045 92.472C142.52 93.049 142.231 93.7307 142.283 94.5295C142.297 94.7573 142.404 94.9303 142.602 95.048C142.975 95.2708 142.989 95.6038 142.883 95.9737C142.87 96.0187 142.863 96.067 142.844 96.1093C142.061 97.8322 140.958 99.2628 139.158 100.017C137.583 100.677 136.024 100.103 135.153 98.5068C134.42 97.1624 134.264 95.7812 135.206 94.4417C135.356 94.2274 135.376 94.0669 135.27 93.8077C134.517 91.9655 135.32 90.0245 137.157 89.2517C137.497 89.1086 137.665 88.9378 137.761 88.5755C138.157 87.082 139.236 86.191 140.78 86.0559C141.054 86.0321 141.117 85.9241 141.168 85.679C141.559 83.8108 143.115 83.0944 144.806 84.0374C145.223 84.2701 145.452 84.2495 145.838 83.9697C147.432 82.8129 149.725 83.6253 150.308 85.5076C150.353 85.6579 150.315 85.8374 150.471 85.9778Z" fill="black"/>
<path d="M149.096 94.2752C149.067 94.5426 149.323 94.7888 149.666 94.8256C150.01 94.8625 150.312 94.676 150.341 94.4086C150.369 94.1413 150.114 93.895 149.77 93.8582C149.426 93.8213 149.124 94.0078 149.096 94.2752Z" fill="#7B481A"/>
<path d="M149.445 98.8555C149.59 99.0621 149.936 99.509 150.547 99.7996C150.839 99.9385 151.12 100.008 151.385 100.032C151.422 99.8116 151.458 99.5865 151.489 99.3614L149.445 98.8555Z" fill="#9C553C"/>
<path d="M148.059 93.0106C148.127 92.9634 149.152 92.2779 150.342 92.6348C150.936 92.8132 151.289 93.1662 151.435 93.3338L148.059 93.0106Z" fill="black"/>
<path d="M144.591 96.5008C144.454 97.3929 145.157 98.2421 146.161 98.3972C147.166 98.5529 148.093 97.9558 148.231 97.0637C148.369 96.1716 147.666 95.3229 146.661 95.1672C145.655 95.0116 144.729 95.6087 144.591 96.5008Z" fill="#FC847C"/>
<path d="M139.149 145.983C137.05 146.084 135.308 146.137 133.566 146.091C132.054 146.05 131.944 145.963 131.67 144.502C131.031 141.078 130.363 137.652 130.08 134.179C129.7 129.529 129.542 124.864 130.168 120.219C130.516 117.63 131.007 115.06 132.024 112.629C132.826 110.71 133.953 109.022 135.598 107.712C135.948 107.434 136.267 107.242 136.743 107.477C136.979 107.593 137.297 107.552 137.579 107.559C140.594 107.633 143.608 107.593 146.62 107.48C147.581 107.445 148.54 107.286 149.493 107.138C150.149 107.036 150.62 107.201 150.999 107.771C152.682 110.299 153.965 113.001 154.759 115.942C155.593 119.029 155.998 122.166 156.06 125.358C156.168 130.863 155.405 136.247 153.886 141.531C153.678 142.256 153.425 142.964 153.081 143.638C152.741 144.303 152.236 144.749 151.512 144.962C150.967 145.122 150.422 145.231 149.854 145.276C148.282 145.399 146.719 145.614 145.142 145.698C143.024 145.809 140.91 145.945 139.149 145.983Z" fill="#FFBD03"/>
<path d="M168.05 126.862C168.366 126.791 168.68 126.703 169 126.653C169.292 126.608 169.58 126.651 169.724 126.955C169.863 127.247 169.752 127.504 169.55 127.729C169.31 127.996 169.002 128.17 168.702 128.356C168.409 128.538 168.115 128.718 167.741 128.949C168.076 129.046 168.291 128.963 168.51 128.919C168.855 128.849 169.201 128.772 169.55 128.734C170.053 128.68 170.356 128.816 170.444 129.113C170.557 129.498 170.324 129.737 170.052 129.943C169.883 130.07 169.701 130.179 169.523 130.292C169.368 130.391 169.209 130.484 168.948 130.642C169.32 130.728 169.58 130.663 169.838 130.625C170.118 130.584 170.401 130.546 170.679 130.621C171.154 130.749 171.278 131.17 170.947 131.54C170.723 131.791 170.414 131.923 170.118 132.065C168.926 132.637 167.665 133.014 166.402 133.387C165.319 133.707 164.222 133.967 163.107 134.148C162.968 134.171 162.828 134.195 162.687 134.2C161.948 134.226 161.569 133.913 161.559 133.167C161.543 132.04 161.514 130.91 161.694 129.787C161.78 129.254 161.847 128.715 161.88 128.176C161.909 127.716 162.102 127.438 162.547 127.303C164.057 126.844 165.495 126.199 166.951 125.597C167.343 125.434 167.741 125.29 168.168 125.256C168.464 125.233 168.748 125.279 168.872 125.595C168.981 125.877 168.833 126.101 168.633 126.283C168.443 126.455 168.235 126.607 168.035 126.768C168.039 126.8 168.045 126.831 168.05 126.862Z" fill="#FFCBB6"/>
<path d="M162.794 130.237C162.794 131.108 162.816 131.98 162.788 132.85C162.739 134.357 162.536 134.577 161.052 134.789C157.719 135.263 154.385 135.729 151.003 135.653C148.072 135.588 145.173 135.288 142.374 134.376C139.263 133.361 136.459 131.82 134.222 129.372C132.676 127.68 131.592 125.713 130.777 123.58C129.664 120.669 128.982 117.684 129.161 114.545C129.222 113.48 129.423 112.445 129.872 111.467C130.01 111.166 130.16 110.871 130.373 110.618C131.678 109.069 133.168 108.773 134.853 109.9C135.547 110.365 136.078 110.998 136.55 111.679C137.302 112.767 137.915 113.934 138.467 115.132C139.049 116.394 139.629 117.657 140.326 118.858C142.34 122.329 145.163 124.846 149.032 126.071C150.821 126.637 152.686 126.713 154.548 126.765C156.482 126.819 158.407 126.709 160.332 126.534C160.87 126.485 161.413 126.467 161.954 126.47C162.537 126.474 162.755 126.691 162.806 127.273C162.893 128.26 162.923 129.248 162.794 130.237Z" fill="#FF9406"/>
<path d="M169.888 103.156C169.356 103.003 168.906 102.875 168.458 102.744C167.87 102.57 167.304 102.343 166.765 102.047C165.961 101.606 165.508 100.937 165.406 100.026C165.287 98.9697 165.255 97.9133 165.329 96.8525C165.394 95.9127 165.452 94.9734 165.276 94.0358C165.187 93.5591 164.99 93.2239 164.48 93.0759C164.009 92.9387 163.553 92.7321 163.11 92.5141C162.421 92.174 162.388 91.7608 163.006 91.315C163.578 90.9018 164.173 90.5205 164.745 90.1067C165.294 89.7103 165.682 89.2043 165.855 88.5243C166.202 87.1566 166.577 85.7954 166.958 84.4364C167.111 83.8935 167.293 83.3577 167.492 82.83C168.421 80.3593 170.272 79.0556 172.828 78.7009C173.902 78.5518 174.984 78.5366 176.062 78.7562C178.359 79.2253 180.062 80.5708 181.435 82.3891C182.695 84.0589 183.345 85.9944 183.776 88.0145C184.067 89.3784 184.169 90.7646 184.206 92.1534C184.299 95.6703 183.981 99.1633 183.548 102.648C183.287 104.75 183.075 106.859 182.656 108.938C182.288 110.762 181.848 112.567 181.242 114.328C181.181 114.506 181.13 114.691 181.043 114.855C180.809 115.296 180.508 115.425 179.993 115.369C178.811 115.241 177.707 114.831 176.601 114.43C173.722 113.388 171.083 111.916 168.686 110.007C168.2 109.621 167.82 109.145 167.445 108.66C167.22 108.37 167.197 108.06 167.387 107.739C167.639 107.314 167.887 106.887 168.141 106.463C168.768 105.415 169.425 104.381 169.888 103.156Z" fill="#FFCBB6"/>
<path d="M181.381 111.202C181.606 110.419 181.192 109.834 180.448 109.199C178.059 107.16 177.047 104.47 177.114 101.351C177.15 99.6656 177.521 98.0376 177.917 96.4123C178.211 95.2002 178.583 94.0061 178.774 92.7707C179.226 89.8433 178.55 87.2088 176.688 84.8926C176.28 84.3839 176.281 84.4023 175.723 84.6778C173.378 85.8373 171.016 85.9099 168.665 84.7125C166.673 83.6984 165.547 81.2792 166.029 79.0253C166.565 76.5182 167.97 74.7422 170.442 73.8576C174.079 72.5566 177.246 73.4048 180.043 75.9217C180.416 76.2568 180.731 76.3891 181.213 76.2942C181.625 76.2129 182.056 76.2107 182.479 76.2113C184.641 76.2129 186.168 77.3452 187.331 79.0394C188.325 80.4874 188.747 82.1572 189.016 83.8676C189.287 85.5932 189.326 87.3389 189.428 89.0781C189.564 91.4144 189.892 93.7149 190.591 95.9546C191.369 98.447 192.768 100.54 194.731 102.243C195.842 103.208 197.169 103.84 198.499 104.448C199.847 105.064 201.205 105.66 202.556 106.269C204.14 106.982 205.557 107.94 206.774 109.184C208.077 110.517 208.783 112.093 208.552 113.977C208.341 115.693 207.401 116.939 205.847 117.692C204.443 118.371 202.951 118.463 201.428 118.252C200.843 118.17 200.847 118.171 200.538 118.711C199.282 120.9 197.532 122.486 195.077 123.235C188.867 125.13 184.064 121.257 182.385 116.976C181.728 115.298 181.376 113.333 181.381 111.202Z" fill="black"/>
<path d="M169.1 88.2573C169.045 88.6163 168.625 88.85 168.164 88.779C167.702 88.708 167.373 88.3592 167.428 88.0002C167.483 87.6412 167.902 87.4075 168.364 87.4785C168.825 87.5496 169.155 87.8977 169.1 88.2573Z" fill="#7B481A"/>
<path d="M167.912 95.0079C167.676 95.1369 167.126 95.401 166.343 95.4054C165.97 95.4075 165.634 95.3501 165.332 95.2579C165.375 95.0371 165.419 94.8126 165.469 94.5908L167.912 95.0079Z" fill="#9C553C"/>
<path d="M170.644 87.1534C170.574 87.0877 169.525 86.1262 167.981 86.1192C167.21 86.1159 166.682 86.3518 166.457 86.47L170.644 87.1534Z" fill="black"/>
<path d="M172.139 93.027C171.772 93.9918 170.594 94.4386 169.507 94.026C168.42 93.6127 167.837 92.4961 168.203 91.5313C168.57 90.5666 169.748 90.1197 170.835 90.5329C171.922 90.9456 172.505 92.0628 172.139 93.027Z" fill="#FC847C"/>
<path d="M184.212 115.061C189.605 117.164 193.82 125.849 193.212 133.625C192.284 145.499 179.796 159.315 165.812 157.52C154.865 156.114 149.011 145.914 148.211 144.47C150.544 142.877 152.878 141.284 155.211 139.691C156.327 140.964 158.207 142.83 161.011 144.47C163.466 145.905 166.415 147.63 170.011 147.411C175.895 147.051 179.441 141.734 179.811 141.162C183.248 135.837 182.101 128.283 177.011 122.046C176.72 121.536 176.095 120.269 176.311 118.646C176.35 118.357 176.723 115.855 178.811 114.786C180.841 113.746 183.257 114.689 184.212 115.061Z" fill="#EA2650"/>
<path d="M148.764 135.145C148.515 134.874 148.478 134.651 148.405 134.447C148.176 133.809 147.96 133.167 147.733 132.528C147.65 132.294 147.561 132.059 147.396 131.86C147.046 131.434 146.588 131.477 146.441 131.969C146.375 132.19 146.376 132.442 146.38 132.682C146.394 133.434 146.541 134.18 146.709 134.924C146.783 135.249 146.855 135.574 146.932 135.922C146.682 135.888 146.685 135.705 146.634 135.581C146.289 134.742 145.956 133.899 145.612 133.06C145.509 132.809 145.394 132.559 145.262 132.32C145.146 132.11 144.968 131.951 144.715 131.992C144.442 132.037 144.323 132.234 144.324 132.501C144.325 132.72 144.332 132.943 144.372 133.161C144.474 133.709 144.572 134.26 144.714 134.802C145.509 137.831 146.57 140.784 147.978 143.635C148.522 144.735 148.827 144.841 149.719 144.162C151.078 143.127 152.479 142.141 153.763 141.012C153.984 140.818 154.231 140.651 154.474 140.484C154.753 140.291 154.845 140.037 154.709 139.693C154.692 139.65 154.682 139.606 154.664 139.565C153.78 137.562 153.195 135.482 152.541 133.419C152.392 132.947 152.235 132.473 151.942 132.051C151.805 131.854 151.643 131.689 151.394 131.696C151.118 131.704 150.978 131.889 150.892 132.12C150.778 132.427 150.79 132.759 150.798 133.09C150.817 133.861 151.004 134.626 151.13 135.486C150.878 135.249 150.842 135.021 150.769 134.82C150.513 134.119 150.275 133.413 150.023 132.71C149.901 132.369 149.764 132.03 149.546 131.732C149.366 131.485 149.147 131.249 148.817 131.339C148.527 131.418 148.472 131.681 148.462 131.958C148.443 132.528 148.466 133.1 148.552 133.675C148.62 134.125 148.683 134.578 148.764 135.145Z" fill="#FFCBB6"/>
<path d="M217.553 249.04C217.44 244.921 217.59 240.967 217.624 237.012C217.631 236.236 217.613 235.46 217.605 234.684C217.598 233.912 217.708 233.783 218.486 233.689C220.4 233.459 222.322 233.303 224.249 233.242C226.776 233.162 229.304 233.125 231.832 233.066C232.035 233.061 232.232 233.077 232.419 233.16C232.719 233.291 232.841 233.517 232.722 233.827C231.635 236.666 231.06 239.636 230.454 242.601C229.488 247.34 228.861 252.122 228.48 256.942C228.156 261.047 228.291 265.148 228.499 269.249C228.704 273.276 229.087 277.286 229.734 281.268C229.81 281.736 229.928 282.198 230.024 282.663C230.166 283.353 229.98 283.633 229.274 283.756C228.311 283.925 227.337 283.997 226.36 284.019C225.209 284.047 224.057 284.087 222.906 284.078C222.088 284.072 221.846 283.841 221.678 283.05C220.566 277.809 219.597 272.54 219.015 267.214C218.348 261.118 217.835 255.006 217.553 249.04Z" fill="#FFCBB6"/>
<path d="M198.822 262.716C198.703 259.288 198.628 255.281 198.691 251.275C198.773 246.119 198.91 240.963 199.532 235.834C199.638 234.965 199.716 234.092 199.809 233.221C199.901 232.358 200.026 232.241 200.885 232.25C204.192 232.286 207.485 232.525 210.767 232.934C211.512 233.027 212.263 233.068 213.008 233.16C213.845 233.264 213.973 233.506 213.697 234.313C211.469 240.821 209.886 247.475 209.103 254.317C208.63 258.445 208.192 262.576 207.864 266.718C207.513 271.137 207.32 275.563 207.452 279.999C207.495 281.45 207.46 282.903 207.453 284.354C207.449 285.021 207.161 285.328 206.353 285.419C205.333 285.533 204.309 285.607 203.284 285.669C202.486 285.717 201.686 285.739 200.884 285.647C200.438 285.595 200.196 285.388 200.14 284.955C200.055 284.309 199.954 283.665 199.903 283.017C199.657 279.872 199.413 276.727 199.263 273.575C199.099 270.149 198.912 266.723 198.822 262.716Z" fill="#FFCBB6"/>
<path d="M230.384 282.74C230.51 284.508 230.027 286.077 229.094 287.482C226.96 290.693 224.642 293.768 222.073 296.648C221.54 297.246 220.961 297.8 220.274 298.227C219.91 298.453 219.525 298.627 219.084 298.64C218.303 298.665 217.785 298.25 217.696 297.476C217.609 296.722 217.707 295.981 217.901 295.248C218.336 293.6 218.98 292.026 219.565 290.43C220.106 288.952 220.624 287.465 221.042 285.945C221.331 284.893 221.43 283.84 221.265 282.754C221.094 281.623 221.186 281.53 222.355 281.458C224.552 281.322 226.749 281.198 228.947 281.07C229.121 281.059 229.297 281.047 229.472 281.053C230.142 281.076 230.312 281.234 230.359 281.893C230.379 282.192 230.377 282.493 230.384 282.74Z" fill="black"/>
<path d="M207.57 284.621C207.677 286.51 206.892 288.002 205.602 289.319C204.212 290.737 202.687 291.989 201.091 293.154C199.475 294.334 197.793 295.417 196.04 296.388C195.667 296.594 195.286 296.788 194.866 296.872C193.8 297.083 192.816 296.227 193.291 295.066C193.529 294.483 193.84 293.943 194.175 293.416C195.384 291.517 196.658 289.661 197.955 287.821C198.085 287.637 198.208 287.448 198.342 287.268C198.929 286.483 199.264 285.615 199.25 284.622C199.244 284.197 199.263 283.772 199.286 283.347C199.316 282.795 199.486 282.641 200.031 282.662C202.23 282.747 204.429 282.832 206.627 282.921C207.384 282.952 207.53 283.108 207.548 283.871C207.555 284.121 207.563 284.371 207.57 284.621Z" fill="black"/>
<path d="M243.573 226.07C243.208 226.642 242.85 227.218 242.476 227.784C242.268 228.099 242.024 228.391 241.708 228.605C241.511 228.738 241.299 228.84 241.048 228.713C240.779 228.577 240.703 228.349 240.707 228.071C240.715 227.543 240.874 227.048 241.048 226.561C241.61 224.988 242.19 223.421 242.758 221.85C243.66 219.357 244.17 216.774 244.521 214.156C245.036 210.316 245.156 206.459 244.924 202.594C244.757 199.817 244.276 197.079 243.784 194.344C243.28 191.54 242.628 188.768 241.977 185.995C241.8 185.24 241.559 184.5 241.355 183.751C241.084 182.755 241.08 182.731 242.099 182.431C244.221 181.807 246.35 181.21 248.476 180.603C248.883 180.487 249.287 180.353 249.699 180.261C250.36 180.112 250.543 180.227 250.694 180.896C251.046 182.457 251.381 184.023 251.554 185.617C251.771 187.606 252.031 189.592 252.193 191.586C252.456 194.827 252.548 198.075 252.464 201.328C252.387 204.319 252.27 207.309 251.997 210.288C251.596 214.648 251.151 219.01 249.898 223.232C249.127 225.829 248.22 228.38 246.928 230.774C246.311 231.917 245.608 233.003 244.683 233.928C244.264 234.347 243.809 234.718 243.231 234.902C242.551 235.119 242.015 234.872 241.75 234.212C241.491 233.567 241.541 232.915 241.756 232.275C241.981 231.606 242.228 230.945 242.476 230.284C242.989 228.919 243.367 227.517 243.573 226.07Z" fill="#FFCBB6"/>
<path d="M250.671 181.82C249.364 182.422 248.03 182.948 246.68 183.442C245.021 184.049 243.372 184.673 241.723 185.297C241.024 185.562 240.829 185.508 240.487 184.836C239.511 182.932 238.545 181.018 237.575 179.104C237.472 178.897 237.39 178.675 237.222 178.512C237.005 178.61 237.054 178.8 237.038 178.952C236.729 181.24 236.42 183.523 236.127 185.817C235.953 187.216 235.964 188.632 235.872 190.036C235.579 194.532 235.78 199.028 235.742 203.524C235.731 205.237 235.915 206.946 235.991 208.659C236.051 209.999 236.186 211.333 236.213 212.672C236.251 214.386 236.371 216.094 236.447 217.808C236.501 219.077 236.55 220.346 236.577 221.615C236.62 223.258 236.707 224.896 236.853 226.534C236.951 227.656 236.967 228.785 237.054 229.912C237.152 231.171 237.293 232.429 237.401 233.692C237.434 234.018 237.439 234.349 237.445 234.679C237.455 235.059 237.249 235.238 236.886 235.254C236.647 235.265 236.414 235.271 236.181 235.271C229.652 235.384 223.128 235.205 216.604 235.064C213.046 234.989 209.488 234.913 205.936 234.744C201.799 234.549 197.65 234.435 193.517 234.143C192.997 234.105 192.487 234.039 191.966 233.996C191.386 233.953 191.283 233.833 191.402 233.242C191.571 232.413 191.766 231.588 191.928 230.758C192.585 227.478 193.23 224.202 193.886 220.921C195.367 213.535 197.216 206.23 199.071 198.93C199.689 196.479 200.09 194.001 200.41 191.501C200.915 187.602 201.413 183.702 201.907 179.798C202.064 178.572 202.189 177.341 202.335 176.067C202.048 176.208 201.983 176.446 201.864 176.641C201.023 178.003 200.269 179.418 199.374 180.747C198.913 181.435 198.659 181.522 197.986 181.067C195.784 179.564 193.333 178.496 191.05 177.13C190.003 176.495 188.913 175.926 187.948 175.166C187.427 174.754 187.362 174.586 187.574 173.957C187.655 173.713 187.769 173.474 187.888 173.247C189.119 170.888 190.556 168.702 192.194 166.695C194.315 164.087 196.782 161.782 199.597 159.776C201.641 158.328 203.794 157.08 206.104 156.104C206.538 155.92 206.864 155.936 207.178 156.294C207.298 156.435 207.444 156.565 207.607 156.657C211.495 158.989 215.633 159.862 220.064 158.55C221.94 157.997 223.719 157.178 225.281 155.958C225.492 155.79 225.731 155.719 225.996 155.703C226.474 155.681 226.951 155.735 227.396 155.876C228.209 156.137 229.028 156.397 229.836 156.668C231.767 157.314 233.675 158.024 235.508 158.935C235.498 159.027 235.481 159.119 235.471 159.212C235.075 162.151 234.652 165.09 233.909 167.964C233.491 169.586 233.046 171.197 232.634 172.813C232.461 173.507 232.558 173.664 233.22 173.957C233.952 174.277 234.695 174.564 235.46 174.819C236.777 175.253 238.122 175.606 239.478 175.888C240.134 176.023 240.677 175.898 241.029 175.242C241.268 174.787 241.604 174.38 241.886 173.946C243.264 171.799 244.462 169.591 245.482 167.335C245.861 167.861 246.214 168.404 246.55 168.968C247.765 170.996 248.697 173.154 249.565 175.345C250.107 176.701 250.59 178.079 251.089 179.451C251.208 179.781 251.295 180.128 251.36 180.47C251.501 181.208 251.344 181.517 250.671 181.82Z" fill="#FF57CC"/>
<path d="M217.657 180.543C217.937 180.371 218.215 180.196 218.498 180.03C218.843 179.827 219.183 179.614 219.543 179.44C219.832 179.3 220.152 179.214 220.42 179.495C220.612 179.695 220.568 179.986 220.299 180.358C220.014 180.753 219.661 181.087 219.308 181.42C219.161 181.559 218.974 181.664 218.869 181.897C219.139 181.891 219.312 181.721 219.507 181.619C220.103 181.305 220.686 180.966 221.332 180.757C221.611 180.667 221.886 180.638 222.078 180.901C222.267 181.161 222.164 181.426 222.002 181.664C221.74 182.049 221.412 182.378 221.07 182.692C220.875 182.871 220.684 183.055 220.491 183.236C220.514 183.271 220.537 183.305 220.56 183.339C220.897 183.187 221.233 183.032 221.572 182.883C221.899 182.74 222.217 182.562 222.579 182.521C223.153 182.457 223.462 182.878 223.227 183.402C223.113 183.656 222.911 183.849 222.716 184.042C221.949 184.799 221.095 185.454 220.214 186.07C215.12 189.63 209.753 192.692 204.009 195.092C201.713 196.052 199.408 196.972 197.017 197.664C195.353 198.146 193.653 198.464 191.917 198.503C188.914 198.572 186.758 197.087 185.704 194.265C185.011 192.41 184.849 190.484 185.068 188.535C185.555 184.207 186.809 180.086 188.553 176.107C188.604 175.991 188.658 175.877 188.711 175.762C188.838 175.486 189.057 175.41 189.337 175.481C189.438 175.507 189.535 175.552 189.63 175.598C191.296 176.41 192.972 177.204 194.548 178.188C195.209 178.601 195.897 178.972 196.553 179.393C197.274 179.856 197.331 180.067 197.053 180.864C196.747 181.741 196.497 182.633 196.388 183.558C196.311 184.202 196.425 184.821 196.689 185.406C197.169 186.469 198.09 186.823 199.165 186.831C200.14 186.838 201.089 186.619 202.011 186.305C206.247 184.863 210.199 182.864 213.872 180.307C214.979 179.537 216.112 178.803 217.236 178.059C217.553 177.85 217.878 177.657 218.256 177.567C218.547 177.498 218.808 177.537 219.006 177.767C219.212 178.005 219.172 178.282 219.045 178.539C218.848 178.938 218.58 179.292 218.289 179.627C218.054 179.896 217.815 180.161 217.578 180.429C217.605 180.467 217.631 180.505 217.657 180.543Z" fill="#FFCBB6"/>
<path d="M204.53 139.524C204.463 139.501 204.42 139.471 204.378 139.473C203.177 139.533 202.516 139.024 202.333 137.834C202.186 136.874 202.48 136.067 203.294 135.488C203.612 135.261 203.966 135.165 204.36 135.194C204.879 135.23 204.888 135.224 204.995 134.692C205.196 133.696 205.507 132.739 205.885 131.794C207.087 128.789 209.356 126.875 212.208 125.556C213.601 124.912 215.041 125.077 216.415 125.567C219.882 126.799 222.303 129.116 223.46 132.662C223.664 133.288 223.852 133.921 224.014 134.559C224.093 134.869 224.168 134.991 224.534 134.879C225.175 134.682 225.613 134.878 225.996 135.42C226.829 136.597 226.403 138.023 225.033 138.507C224.649 138.643 224.542 138.815 224.537 139.198C224.499 141.786 224.033 144.3 223.185 146.745C222.992 147.302 222.775 147.853 222.463 148.353C222.239 148.713 222.165 149.07 222.205 149.488C222.321 150.684 222.407 151.884 222.631 153.065C222.81 154.006 223.089 154.898 223.989 155.437C224.485 155.734 225.037 155.851 225.583 155.99C225.857 156.059 226.143 156.087 226.41 156.175C226.847 156.32 226.938 156.676 226.584 156.973C226.154 157.336 225.689 157.667 225.208 157.959C222.289 159.731 219.136 160.738 215.702 160.734C212.731 160.731 209.994 159.884 207.469 158.333C207.129 158.124 206.777 157.921 206.478 157.66C206.048 157.285 206.058 156.956 206.525 156.631C207.644 155.852 208.24 154.783 208.396 153.447C208.465 152.863 208.533 152.278 208.608 151.694C208.646 151.395 208.568 151.165 208.342 150.941C206.464 149.078 205.498 146.775 205.055 144.201C204.802 142.735 204.582 141.272 204.574 139.783C204.574 139.693 204.544 139.603 204.53 139.524Z" fill="#FFCBB6"/>
<path d="M214.718 130.261C214.499 130.431 214.445 130.642 214.349 130.826C212.941 133.488 210.823 135.38 208.087 136.598C207.722 136.76 207.337 136.869 206.941 136.946C205.479 137.228 204.737 136.854 204.14 135.509C203.181 135.838 202.572 137.03 202.897 137.944C203.091 138.493 203.493 138.721 204.053 138.602C204.859 138.431 205.115 138.612 205.069 139.411C204.929 141.842 205.492 144.129 206.414 146.353C206.859 147.426 207.438 148.421 208.11 149.362C209.281 151.002 209.502 152.791 208.895 154.67C208.217 156.767 207.249 158.731 205.861 160.458C204.366 162.32 202.373 162.942 200.065 162.613C198.827 162.437 198.035 161.688 197.713 160.469C197.41 159.323 197.58 158.226 198.072 157.168C198.442 156.371 198.942 155.661 199.57 155.042C199.751 154.863 199.93 154.681 200.138 154.471C199.352 153.851 198.765 153.092 198.28 152.253C197.112 150.236 197.145 148.226 198.336 146.23C198.443 146.051 198.58 145.92 198.412 145.672C197.664 144.57 197.396 143.297 197.24 142.008C196.838 138.702 197.518 135.634 199.42 132.88C200.299 131.608 201.418 130.561 202.731 129.739C203.03 129.551 203.184 129.329 203.293 128.987C204.226 126.046 206.659 123.757 210.193 123.488C211.23 123.408 212.261 123.496 213.282 123.72C214.006 123.878 214.679 124.15 215.286 124.564C215.56 124.751 215.776 124.767 216.05 124.576C216.279 124.417 216.543 124.302 216.799 124.185C218.632 123.354 220.454 123.478 222.279 124.233C224.135 125 225.518 126.297 226.566 127.981C226.616 128.061 226.683 128.144 226.694 128.231C226.772 128.901 227.264 129.287 227.704 129.701C229.59 131.473 230.368 133.709 230.42 136.232C230.461 138.25 230.004 140.117 228.476 141.689C230.271 142.628 231.317 144.035 231.448 146.047C231.575 148.009 230.892 149.639 229.388 150.976C230.127 151.235 230.764 151.525 231.327 151.96C232.93 153.197 233.555 155.357 232.76 157.147C232.12 158.589 230.963 159.347 229.382 159.411C228.603 159.443 227.829 159.329 227.065 159.192C225.464 158.906 224.434 157.843 223.706 156.505C222.486 154.266 221.728 151.878 221.723 149.292C221.722 148.727 221.714 148.159 221.655 147.599C221.599 147.078 221.716 146.62 221.978 146.183C223.161 144.214 223.689 142.016 224.21 139.815C224.216 139.792 224.225 139.769 224.225 139.745C224.222 138.933 224.5 138.376 225.305 137.974C226.152 137.551 226.15 135.864 225.418 135.236C225.194 135.044 224.947 135.028 224.69 135.1C224.511 135.15 224.344 135.245 224.171 135.32C223.506 135.609 222.831 135.697 222.107 135.535C219.096 134.861 216.676 133.342 215.033 130.682C214.959 130.563 214.881 130.445 214.802 130.328C214.789 130.31 214.766 130.299 214.718 130.261Z" fill="black"/>
<path d="M212.124 138.245C212.102 138.594 211.693 138.853 211.209 138.823C210.725 138.793 210.35 138.486 210.372 138.137C210.394 137.787 210.803 137.528 211.287 137.558C211.771 137.587 212.145 137.895 212.124 138.245Z" fill="#7B481A"/>
<path d="M220.194 138.743C220.172 139.092 219.763 139.351 219.279 139.321C218.795 139.291 218.421 138.984 218.442 138.635C218.464 138.285 218.873 138.026 219.357 138.056C219.841 138.085 220.216 138.393 220.194 138.743Z" fill="#7B481A"/>
<path d="M213.883 142.981L215.381 137.698L216.369 143.061L213.883 142.981Z" fill="#F69A90"/>
<path d="M212.76 136.821C212.692 136.769 211.666 136.008 210.274 136.123C209.578 136.181 209.123 136.43 208.93 136.55L212.76 136.821Z" fill="black"/>
<path d="M212.438 145.129C212.521 145.193 213.771 146.12 215.467 145.979C216.315 145.909 216.87 145.606 217.105 145.458L212.438 145.129Z" fill="#9C553C"/>
<path d="M221.579 137.383C221.504 137.326 220.381 136.494 218.857 136.619C218.096 136.682 217.597 136.955 217.387 137.087L221.579 137.383Z" fill="black"/>
<path d="M212.201 141.835C212.14 142.828 211.29 143.583 210.302 143.522C209.314 143.461 208.563 142.607 208.625 141.614C208.686 140.622 209.536 139.867 210.524 139.927C211.511 139.988 212.262 140.843 212.201 141.835Z" fill="#FC847C"/>
<path d="M221.865 142.899C221.804 143.891 220.954 144.646 219.966 144.586C218.978 144.525 218.227 143.671 218.289 142.678C218.35 141.685 219.2 140.93 220.188 140.991C221.175 141.052 221.926 141.906 221.865 142.899Z" fill="#FC847C"/>
<path d="M229.726 182.156C229.391 182.029 229.201 182.215 228.994 182.294C228.224 182.587 227.466 182.912 226.671 183.132C226.4 183.207 226.12 183.277 225.842 183.289C225.557 183.301 225.271 183.228 225.144 182.914C225.019 182.604 225.148 182.357 225.374 182.159C225.569 181.99 225.78 181.836 225.998 181.697C226.611 181.307 227.232 180.929 227.829 180.485C226.955 180.663 226.083 180.849 225.206 181.015C224.907 181.071 224.597 181.111 224.295 181.095C223.782 181.067 223.564 180.643 223.812 180.191C223.964 179.916 224.214 179.733 224.468 179.56C225.034 179.174 225.655 178.887 226.257 178.564C226.46 178.455 226.697 178.4 226.896 178.14C226.173 178.259 225.512 178.365 224.853 178.478C224.48 178.542 224.105 178.574 223.727 178.546C223.448 178.525 223.223 178.401 223.158 178.106C223.087 177.781 223.239 177.553 223.529 177.426C223.808 177.304 224.096 177.198 224.387 177.103C226.042 176.563 227.714 176.07 229.296 175.33C229.502 175.233 229.748 175.193 229.932 174.915C229.489 174.793 229.071 174.688 228.66 174.562C228.368 174.473 228.077 174.375 227.801 174.247C227.509 174.113 227.274 173.898 227.335 173.537C227.393 173.187 227.67 173.052 227.987 172.975C228.266 172.908 228.549 172.918 228.83 172.929C229.869 172.97 230.89 173.158 231.903 173.366C232.402 173.469 232.768 173.389 233.084 172.996C233.23 172.814 233.402 172.645 233.585 172.501C233.883 172.268 234.2 172.204 234.57 172.383C236.032 173.09 237.504 173.776 238.967 174.479C239.241 174.611 239.508 174.769 239.754 174.948C240.174 175.253 240.239 175.47 239.996 175.908C239.41 176.959 238.767 177.97 237.885 178.81C235.391 181.187 232.566 183.079 229.472 184.579C229.05 184.784 228.622 184.984 228.155 185.077C227.838 185.139 227.521 185.155 227.333 184.848C227.13 184.517 227.275 184.208 227.506 183.946C227.881 183.518 228.351 183.197 228.797 182.851C229.089 182.625 229.39 182.407 229.726 182.156Z" fill="#FFCBB6"/>
</svg>
